# xmcd
#
# Track frame offsets:
#	150
#	19803
#	41728
#	63516
#	88101
#	108973
#	129591
#	153967
#	171743
#	193141
#	215002
#	229539
#	253133
#	274419
#	298935
#	332138
#
# Disc length: 4712 seconds
#
# Revision: 2
# Processed by: cddbd v1.5.1PL0 Copyright (c) Steve Scherf et al.
# Submitted via: audiograbber 1.81.03
#
DISCID=fd126610
DTITLE=Eric Clapton - Limited Edition
DYEAR=2002
DGENRE=Blues
TTITLE0=(I) Get Lost
TTITLE1=I Ain't Gonna Stand For It
TTITLE2=Second Nature
TTITLE3=Broken Down
TTITLE4=Layla
TTITLE5=Tears In Heaven
TTITLE6=My Father's Eyes
TTITLE7=Change The World
TTITLE8=Pretending
TTITLE9=Modern Girl
TTITLE10=Forever Man
TTITLE11=Bad Love
TTITLE12=Blue Eyes Blue
TTITLE13=She Wonderful In The Night
TTITLE14=River Of Tears
TTITLE15=Son and Silvia
EXTD=YEAR: 2002  ID3G:   0
EXTT0=
EXTT1=
EXTT2=
EXTT3=
EXTT4=
EXTT5=
EXTT6=
EXTT7=
EXTT8=
EXTT9=
EXTT10=
EXTT11=
EXTT12=
EXTT13=
EXTT14=
EXTT15=
PLAYORDER=
